<svg width="52" height="64" viewBox="0 0 52 64" fill="none" xmlns="http://www.w3.org/2000/svg">
<path fill-rule="evenodd" clip-rule="evenodd" d="M19.8805 34.8362H32.1218C32.9368 34.8362 33.603 35.5024 33.603 36.3174V52.8999C33.603 53.7149 32.9368 54.3812 32.1218 54.3812H19.8805C19.0655 54.3812 18.3955 53.7149 18.3955 52.8999V36.3174C18.3955 35.5024 19.0655 34.8362 19.8805 34.8362Z" fill="#FFD18D"/>
<path fill-rule="evenodd" clip-rule="evenodd" d="M33.6037 38.0925V39.9175C31.3575 41.2175 28.7562 41.9613 26 41.9613C24.7675 41.9613 23.5625 41.8125 22.4112 41.5288C21.3087 41.26 20.2575 42.085 20.2575 43.2225V44.5088H18.3975V38.0925C20.5837 39.5563 23.2025 40.41 26.0012 40.41C28.8062 40.41 31.425 39.5563 33.6037 38.0925Z" fill="#E6BC7F"/>
<path fill-rule="evenodd" clip-rule="evenodd" d="M37.0372 46.1951L48.0709 49.9688C50.3734 50.7551 51.8509 52.8251 51.8509 55.2588V61.7888C51.8509 63.0038 50.8584 64.0001 49.6397 64.0001H2.35969C1.14469 64.0001 0.148438 63.0038 0.148438 61.7888V55.2588C0.148438 52.8251 1.62969 50.7551 3.93219 49.9688L14.9622 46.1951L26.1872 47.3188L37.0372 46.1951Z" fill="#4E3D4D"/>
<path fill-rule="evenodd" clip-rule="evenodd" d="M37.0374 46.1951L37.1299 55.0276C37.1374 55.5551 36.8036 56.0051 36.2974 56.1538L35.1599 56.4863C34.4686 56.6913 34.1286 57.4576 34.4411 58.1051L34.6074 58.4526C34.8836 59.0263 34.6461 59.7176 34.0761 59.9976L25.9999 64.0001L17.9286 60.0001C17.3586 59.7201 17.1211 59.0288 17.3974 58.4551L17.5636 58.1076C17.637 57.9558 17.6765 57.7899 17.6793 57.6213C17.682 57.4527 17.648 57.2856 17.5796 57.1315C17.5112 56.9775 17.41 56.8401 17.2831 56.7291C17.1562 56.6181 17.0067 56.5361 16.8449 56.4888L15.7074 56.1563C15.2011 56.0076 14.8674 55.5576 14.8711 55.0301L14.9636 46.1976L26.0011 47.2151L37.0374 46.1951Z" fill="#292129"/>
<path fill-rule="evenodd" clip-rule="evenodd" d="M25.9994 64.0001L37.0369 46.1951L25.9994 47.2126L14.9619 46.1951L25.9994 64.0001Z" fill="#1BADDE"/>
<path fill-rule="evenodd" clip-rule="evenodd" d="M24.2173 0H27.7848C35.6873 0 42.1498 6.4625 42.1498 14.3638V20.5288C42.1498 25.0388 38.461 28.7275 33.951 28.7275H18.0523C13.5423 28.7275 9.85352 25.0388 9.85352 20.5288V14.3638C9.85352 6.4625 16.316 0 24.2173 0Z" fill="#4E3D4D"/>
<path fill-rule="evenodd" clip-rule="evenodd" d="M11.086 21.8901H12.2235C13.2973 21.8901 14.0585 21.0076 14.1723 19.9414V16.8901C14.1723 16.0964 14.941 15.5401 15.696 15.7851C19.3035 16.9614 25.1848 17.3901 30.1198 11.5226C30.5585 11.0014 31.3385 10.9626 31.8235 11.4451C33.0848 12.6889 35.331 14.1701 37.0385 14.7539C37.5173 14.9164 37.8248 15.3489 37.8248 15.8526V19.9414C37.8248 21.0151 38.6998 21.8901 39.7735 21.8901H40.9148C42.4485 21.8901 43.7073 23.1476 43.7073 24.6851C43.7073 26.2226 42.4498 27.4801 40.9148 27.4801H39.6885C39.2835 34.6626 33.281 40.4101 25.9998 40.4101C18.7648 40.4101 12.7198 34.7051 12.3123 27.4814H11.086C9.54852 27.4814 8.29102 26.2239 8.29102 24.6864C8.29102 23.1476 9.54852 21.8901 11.086 21.8901Z" fill="#FFD18D"/>
<path fill-rule="evenodd" clip-rule="evenodd" d="M25.9993 64.0001L22.8605 58.9338L23.9205 53.7826C23.5843 53.5413 23.3355 53.1763 23.223 52.7413L21.7705 47.1751L25.9993 47.2126L30.2293 47.1738L28.7768 52.7401C28.663 53.1763 28.4155 53.5413 28.0793 53.7813L29.1418 58.9326L25.9993 64.0001Z" fill="#736572"/>
</svg>
