<svg width="42" height="64" viewBox="0 0 42 64" fill="none" xmlns="http://www.w3.org/2000/svg">
<path d="M24.75 35.875H17.25V40.625L3.5125 47.025C1.75 47.85 0.625 49.6125 0.625 51.5625V63.375H41.375V51.5625C41.375 49.625 40.25 47.85 38.4875 47.025L24.75 40.625V35.875Z" fill="#D84861"/>
<path d="M26.875 52C26.875 54.85 24.75 63.375 24.75 63.375H17.25C17.25 63.375 15.125 54.8375 15.125 52C15.125 49.1625 17.25 40.625 17.25 40.625V35.875H24.75V40.625C24.75 40.625 26.875 49.1625 26.875 52Z" fill="#F6C9AA"/>
<path d="M25.9875 46.0874C25.9875 46.0874 24.125 47.6249 21 47.6249C17.875 47.6249 16.0125 46.0874 16.0125 46.0874L13.75 51.9999V63.3749H28.25V51.9999L25.9875 46.0874Z" fill="#D8D6C1"/>
<path d="M17.2493 40.625L10.2618 43.8875L12.7868 46.875L10.2618 52.4625C10.2618 52.4625 9.81183 59.9625 14.4618 63.375H17.2493C17.2493 63.375 15.1243 54.8375 15.1243 52C15.1243 49.1625 17.2493 40.625 17.2493 40.625ZM24.7493 40.625L31.7368 43.8875L29.2118 46.875L31.7368 52.4625C31.7368 52.4625 32.1868 59.9625 27.5368 63.375H24.7493C24.7493 63.375 26.8743 54.8375 26.8743 52C26.8743 49.1625 24.7493 40.625 24.7493 40.625Z" fill="#E17084"/>
<path d="M10.8875 52.6001L13.3625 47.1251C13.4625 46.9001 13.425 46.6501 13.275 46.4626L10.8625 43.6001L9.6875 44.1501L12.075 46.9751L9.7125 52.2001C9.675 52.2751 9.6625 52.3501 9.6625 52.4251C9.65 52.7251 9.275 59.6376 13.5 63.3751H15.55L14.8625 62.8751C10.8125 59.9126 10.85 53.5251 10.8875 52.6001ZM31.1125 52.6001L28.6375 47.1251C28.5375 46.9001 28.575 46.6501 28.725 46.4626L31.1375 43.6001L32.3125 44.1501L29.925 46.9751L32.2875 52.2001C32.325 52.2751 32.3375 52.3501 32.3375 52.4251C32.35 52.7251 32.725 59.6376 28.5 63.3751H26.45L27.1375 62.8751C31.1875 59.9126 31.15 53.5251 31.1125 52.6001ZM39.0625 47.3376L37.2375 55.3876L36.0125 55.1126L37.9 46.7626L38.475 47.0376C38.6875 47.1251 38.875 47.2251 39.0625 47.3376ZM2.9375 47.3376L4.7625 55.3876L5.9875 55.1126L4.1 46.7626L3.525 47.0376C3.3125 47.1251 3.125 47.2251 2.9375 47.3376Z" fill="#C22945"/>
<path d="M28.825 39.6249C28.825 39.6249 31.25 39.4999 32.3 36.5374C32.3 36.5374 30.0875 33.8374 26.8625 35.8874L24.75 36.5124V39.6374L28.825 39.6249Z" fill="#275E87"/>
<path d="M11.625 39.625C15.0768 39.625 17.875 36.8268 17.875 33.375C17.875 29.9232 15.0768 27.125 11.625 27.125C8.17322 27.125 5.375 29.9232 5.375 33.375C5.375 36.8268 8.17322 39.625 11.625 39.625Z" fill="#35322B"/>
<path d="M31.875 28.25C35.0625 28.25 36.625 26.15 36.625 23.8875C36.625 21.625 33.3625 21.25 32.875 21.25L31.875 28.25Z" fill="#F6C9AA"/>
<path d="M31.875 26.625L35.0625 23.375C35.0625 23.375 36.375 26.925 31.875 28.25V26.625Z" fill="#F3AB7D"/>
<path d="M10.125 28.25C6.9375 28.25 5.375 26.15 5.375 23.8875C5.375 21.625 8.6375 21.25 9.125 21.25L10.125 28.25Z" fill="#F6C9AA"/>
<path d="M10.1254 26.625L6.93792 23.375C6.93792 23.375 5.62542 26.925 10.1254 28.25V26.625Z" fill="#F3AB7D"/>
<path d="M24.75 40.625C24.75 40.625 24.3125 44.125 19.1875 44.125L17.25 40.625V35.875H24.75V40.625ZM24.75 40.625C26.25 45.0375 31.7375 43.8875 31.7375 43.8875C31.0375 40.3375 28 38.5 24.75 38.5V40.625Z" fill="#3279AF"/>
<path d="M32.875 21.25C32.875 21.25 35.375 20.5625 35.375 15.8125C35.375 11.0625 31.6875 3.625 21 3.625C10.3125 3.625 6.625 11.0625 6.625 15.8125C6.625 20.5625 9.125 21.25 9.125 21.25" fill="#504C43"/>
<path d="M32.875 21.2499C32.875 21.2499 32.45 29.7249 29.875 33.2124C27.25 36.7499 21 38.4999 21 38.4999C21 38.4999 14.75 36.7499 12.125 33.2124C9.55 29.7374 9.125 21.2499 9.125 21.2499C11.5 21.2499 12.5 14.7374 15.875 12.2749C17.45 13.0499 19.2125 13.6249 21 13.6249C22.7875 13.6249 24.55 13.0499 26.125 12.2749C29.5 14.7374 30.5 21.2499 32.875 21.2499Z" fill="#F6C9AA"/>
<path d="M31.75 8.25C31.75 8.25 26.4625 13.625 21 13.625C15.5375 13.625 10.25 8.25 10.25 8.25L12.75 2.625C12.75 2.625 15.7125 0.625 21 0.625C26.2875 0.625 29.25 2.625 29.25 2.625L31.75 8.25Z" fill="#D84861"/>
<path d="M29.25 2.625C29.25 2.625 23.2875 8.25 21 8.25C18.7125 8.25 12.75 2.625 12.75 2.625C12.75 2.625 15.7125 0.625 21 0.625C26.2875 0.625 29.25 2.625 29.25 2.625Z" fill="#C22945"/>
<path d="M28.75 23.3749C28.4125 23.1374 27.6 22.6374 26.5 22.6249C25.375 22.6124 24.5875 23.2249 24.25 23.3499L23.75 24.8749H27.25C28.075 24.8749 28.75 24.1999 28.75 23.3749ZM13.25 23.3749C13.5875 23.1374 14.4 22.6374 15.5 22.6249C16.625 22.6124 17.4125 23.2249 17.75 23.3499L18.25 24.8749H14.75C13.925 24.8749 13.25 24.1999 13.25 23.3749Z" fill="#EBEBDF"/>
<path d="M14.5 22.625H15.75V24.875H14.5V22.625Z" fill="#35322B"/>
<path d="M15.25 22.625H16.5V24.875H15.25V22.625ZM26.25 22.625H27.5V24.875H26.25V22.625Z" fill="#35322B"/>
<path d="M25.5 22.625H26.75V24.875H25.5V22.625ZM13.25 24H12.75V22.75H13.0625C13.8125 22.2625 14.65 22 15.5 22H15.525C16.5375 22 17.2875 22.4 17.7375 22.6375C17.825 22.6875 17.9375 22.7375 17.975 22.75L17.55 23.925C17.425 23.875 17.3 23.8125 17.15 23.7375C16.7625 23.525 16.225 23.2375 15.5375 23.2375H15.525C14.875 23.2375 14.2125 23.4625 13.625 23.875C13.5 23.9625 13.375 24 13.25 24Z" fill="#35322B"/>
<path d="M29.2496 24H28.7496C28.6246 24 28.4996 23.9625 28.3871 23.8875C27.7996 23.475 27.1496 23.25 26.4871 23.25H26.4746C25.7746 23.25 25.2496 23.5375 24.8621 23.75C24.7121 23.825 24.5871 23.9 24.4621 23.9375L24.0371 22.7625C24.0746 22.75 24.1871 22.6875 24.2746 22.65C24.7246 22.4125 25.4871 22 26.5121 22.0125C27.3621 22.0125 28.1996 22.275 28.9496 22.7625H29.2621V24H29.2496Z" fill="#35322B"/>
<path d="M20.9996 32.7624C18.6746 32.7624 17.2871 31.3374 17.0371 31.0499L17.9746 30.2124C18.0996 30.3499 19.1871 31.4999 21.0121 31.4999H21.0496C22.8121 31.4874 23.8496 30.4249 24.0371 30.2124L24.9746 31.0499C24.7246 31.3374 23.3496 32.7374 21.0621 32.7624H20.9996Z" fill="#D84861"/>
<path d="M13.0633 20.1625L12.4258 19.0875C13.0758 18.7 14.1258 18.25 15.4883 18.25H15.5258C16.8758 18.2625 17.9133 18.7125 18.5633 19.0875L17.9258 20.1625C17.4133 19.8625 16.5883 19.5 15.5258 19.5C14.4258 19.4875 13.5883 19.8625 13.0633 20.1625ZM28.9383 20.1625C28.4133 19.8625 27.5633 19.4875 26.4758 19.5C25.4133 19.5 24.5758 19.8625 24.0758 20.1625L23.4383 19.0875C24.0758 18.7125 25.1258 18.2625 26.4758 18.25C27.8508 18.2375 28.9258 18.7 29.5758 19.0875L28.9383 20.1625Z" fill="#35322B"/>
<path d="M25.5 5.925C24.15 7 22.3 8.25 21 8.25C19.7 8.25 17.85 7 16.5 5.925C16.5 5.925 17.3375 2.375 21 2.375C24.6625 2.375 25.5 5.925 25.5 5.925Z" fill="#D84861"/>
<path d="M20.9996 8.87505C18.5246 8.87505 14.7121 5.23755 14.2871 4.82505L15.1621 3.92505C16.2121 4.95005 19.3246 7.62505 20.9996 7.62505C22.6746 7.62505 25.7871 4.95005 26.8371 3.92505L27.7121 4.82505C27.2871 5.23755 23.4746 8.87505 20.9996 8.87505Z" fill="#D8D6C1"/>
</svg>
