<svg width="64" height="64" viewBox="0 0 64 64" fill="none" xmlns="http://www.w3.org/2000/svg">
<g clip-path="url(#clip0_275_2739)">
<path fill-rule="evenodd" clip-rule="evenodd" d="M25.1504 33.6875H38.8504V46.875C38.8504 50.6375 35.7629 53.725 32.0004 53.725C28.2379 53.725 25.1504 50.6375 25.1504 46.875V33.6875Z" fill="#FBBD80"/>
<path fill-rule="evenodd" clip-rule="evenodd" d="M38.8502 38.9626C36.8002 40.0501 34.4627 40.675 31.9877 40.675C29.5127 40.675 27.1877 40.0501 25.1377 38.9626V33.675H38.8377V38.9626H38.8502Z" fill="#E2AA73"/>
<path fill-rule="evenodd" clip-rule="evenodd" d="M39.8502 43.825L51.5627 48.375C53.8127 49.25 55.2377 51.4 55.2377 53.925V61.0375C55.2377 62.6625 53.9752 64 52.4252 64H11.5752C10.0252 64 8.7627 62.675 8.7627 61.0375V53.925C8.7627 51.4 10.1877 49.25 12.4377 48.375L24.1502 43.825C25.7502 43.2 27.5002 43.1375 28.8377 44.2625L32.0002 46.9L35.1627 44.2625C36.5002 43.1375 38.2377 43.2125 39.8502 43.825Z" fill="#EEF1F3"/>
<path d="M47.8629 54.6124C48.1879 54.3874 48.6254 54.4499 48.8629 54.7749C49.1004 55.0999 49.0254 55.5499 48.7004 55.7749L45.6504 57.9749C45.3879 58.1624 45.0504 58.1499 44.8004 57.9624L41.7629 55.7749C41.4379 55.5499 41.3754 55.0999 41.6004 54.7749C41.8379 54.4499 42.2754 54.3874 42.6004 54.6124L45.2254 56.5124L47.8629 54.6124Z" fill="#FFC263"/>
<path fill-rule="evenodd" clip-rule="evenodd" d="M17.3379 14.9749H46.6504V25.4124H17.3379V14.9749Z" fill="#29394A"/>
<path fill-rule="evenodd" clip-rule="evenodd" d="M46.9127 27.4749H17.0752C15.7752 27.4749 14.7002 26.4124 14.7002 25.0999C14.7002 23.7999 15.7752 22.7249 17.0752 22.7249H46.9127C48.2127 22.7249 49.2877 23.7874 49.2877 25.0999C49.2877 26.4124 48.2127 27.4749 46.9127 27.4749Z" fill="#FBBD80"/>
<path fill-rule="evenodd" clip-rule="evenodd" d="M20.7504 12.3499H43.2379V20.8999C43.2379 21.7374 43.8129 22.5249 44.6004 22.7249V26.0124C44.6004 32.9374 38.9254 38.6124 32.0004 38.6124C25.0754 38.6124 19.4004 32.9374 19.4004 26.0124V22.7249C20.1754 22.5124 20.7504 21.7374 20.7504 20.8999V12.3499Z" fill="#FFD18D"/>
<path fill-rule="evenodd" clip-rule="evenodd" d="M51.138 9.58745C52.238 12.0875 52.113 14.95 48.138 14.95H15.863C11.888 14.95 11.763 12.0875 12.863 9.58745C18.4755 -3.20005 45.513 -3.20005 51.138 9.58745Z" fill="#EEF1F3"/>
<path fill-rule="evenodd" clip-rule="evenodd" d="M22.3003 10.7125C24.9628 4.63753 32.4753 1.43753 40.2253 1.15003C30.1003 -1.82497 16.6253 1.00003 12.8503 9.60003C11.7503 12.1 11.8753 14.9625 15.8503 14.9625H21.7128C21.7253 14 21.7878 13.1125 21.9003 12.3625C22.0003 11.6625 22.1378 11.1 22.3003 10.7125Z" fill="#DEE7ED"/>
<path fill-rule="evenodd" clip-rule="evenodd" d="M15.9879 12.2749H47.9879C48.3379 12.2749 48.6379 12.5624 48.6379 12.9249V14.3624C48.6379 15.8499 47.6379 16.9374 46.2754 17.4874C36.7504 21.3499 27.2254 21.3499 17.6879 17.4999C16.3379 16.9499 15.3379 15.8624 15.3379 14.3874V12.9374C15.3504 12.5624 15.6379 12.2749 15.9879 12.2749Z" fill="#384452"/>
<path fill-rule="evenodd" clip-rule="evenodd" d="M21.9003 12.2749H47.9878C48.3378 12.2749 48.6378 12.5624 48.6378 12.9249V14.3624C48.6378 15.8499 47.6378 16.9374 46.2753 17.4874C38.1878 20.7749 30.1003 21.2624 22.0128 18.9749C21.6128 16.6749 21.6378 14.0499 21.9003 12.2749Z" fill="#455465"/>
<path fill-rule="evenodd" clip-rule="evenodd" d="M22.0129 18.9749C21.5879 18.8499 21.1754 18.7249 20.7504 18.5999V20.9124C20.7504 21.7499 20.1754 22.5249 19.4004 22.7374V26.0249C19.4004 30.2999 21.5754 34.2624 25.1504 36.5874C27.1254 37.8749 29.4754 38.6249 32.0004 38.6249C34.4254 38.6249 36.6879 37.9249 38.6254 36.7374C34.1129 38.2624 29.1129 37.0749 25.7254 33.6999C21.2754 29.2624 22.0129 24.6499 22.0129 18.9749Z" fill="#FBBD80"/>
<path fill-rule="evenodd" clip-rule="evenodd" d="M29.7873 50.6375H34.2123L35.7623 64H28.2373L29.7873 50.6375Z" fill="#29394A"/>
<path fill-rule="evenodd" clip-rule="evenodd" d="M34.4756 52.8625C33.5256 53.25 30.5881 53.3 29.5381 52.8625L29.8006 50.625H34.2256L34.4756 52.8625Z" fill="#1E2936"/>
<path fill-rule="evenodd" clip-rule="evenodd" d="M37.0756 46.3875L35.1631 51.1624C34.8756 51.8749 34.0381 52.3125 33.0881 52.3125H30.9006C29.9506 52.3125 29.1131 51.8749 28.8256 51.1624L26.9131 46.3875H37.0756Z" fill="#29394A"/>
<path fill-rule="evenodd" clip-rule="evenodd" d="M26.6754 49.3625L32.0004 46.375L27.1379 41.5125C25.6379 40.0125 24.1629 40.975 22.9879 42.1375C22.6629 42.475 22.5879 42.95 22.8004 43.375L25.7879 49.0875C25.8754 49.25 26.0004 49.3625 26.1754 49.4125C26.3504 49.475 26.5129 49.45 26.6754 49.3625ZM37.3254 49.3625L32.0004 46.3875L36.8629 41.525C38.3629 40.025 39.8379 40.9875 41.0129 42.15C41.3504 42.4875 41.4254 42.9625 41.2004 43.3875L38.2129 49.1C38.1254 49.2625 38.0004 49.375 37.8254 49.425C37.6504 49.475 37.4879 49.45 37.3254 49.3625Z" fill="#D6D9DB"/>
<path fill-rule="evenodd" clip-rule="evenodd" d="M18.0752 50.625L25.1377 47.8875L23.2127 44.2L12.4377 48.375C10.1877 49.25 8.7627 51.3999 8.7627 53.9249V61.0374C8.7627 62.6624 10.0252 64 11.5752 64H14.4002V56.1749C14.4002 53.65 15.8252 51.5 18.0752 50.625Z" fill="#DEE7ED"/>
<path fill-rule="evenodd" clip-rule="evenodd" d="M11.9502 46.5624L18.6627 43.8124C18.9252 43.6999 19.2252 43.8249 19.3252 44.0874L20.5377 47.0374C20.6502 47.2999 20.5252 47.5999 20.2627 47.6999L13.5502 50.4499C13.2877 50.5624 12.9877 50.4374 12.8877 50.1749L11.6752 47.2249C11.5627 46.9749 11.6877 46.6749 11.9502 46.5624ZM52.0502 46.5624L45.3377 43.8124C45.0752 43.6999 44.7752 43.8249 44.6752 44.0874L43.4627 47.0374C43.3502 47.2999 43.4752 47.5999 43.7377 47.6999L50.4502 50.4499C50.7127 50.5624 51.0127 50.4374 51.1127 50.1749L52.3252 47.2249C52.4377 46.9749 52.3127 46.6749 52.0502 46.5624Z" fill="#29394A"/>
<path d="M14.2875 50.1501L12.6875 46.2626L13.875 45.7751L15.475 49.6626L14.2875 50.1501ZM16.3 49.3251L14.7125 45.4376L15.9 44.9501L17.4875 48.8376L16.3 49.3251ZM18.325 48.5001L16.725 44.6126L17.9125 44.1126L19.5125 48.0126L18.325 48.5001ZM49.7125 50.1501L51.3125 46.2626L50.125 45.7751L48.525 49.6626L49.7125 50.1501ZM47.7 49.3251L49.2875 45.4376L48.1 44.9501L46.5125 48.8376L47.7 49.3251ZM45.675 48.5001L47.275 44.6126L46.0875 44.1126L44.4875 48.0126L45.675 48.5001ZM34.625 5.62506C34.95 5.40006 35.4 5.47506 35.625 5.78756C35.85 6.11256 35.775 6.56256 35.4625 6.78756L32.4125 8.98756C32.15 9.17506 31.8 9.16256 31.5625 8.97506L28.525 6.78756C28.2 6.56256 28.1375 6.11256 28.3625 5.78756C28.5875 5.46256 29.0375 5.40006 29.3625 5.62506L32 7.52506L34.625 5.62506Z" fill="#FFC263"/>
</g>
<defs>
<clipPath id="clip0_275_2739">
<rect width="64" height="64" fill="white"/>
</clipPath>
</defs>
</svg>
